<svg width="24" height="24" viewBox="0 0 24 24" fill="none" xmlns="http://www.w3.org/2000/svg">
<path fill-rule="evenodd" clip-rule="evenodd" d="M12 21C16.9705 21 21 16.9705 21 12C21 7.0295 16.9705 3 12 3C7.0295 3 3 7.0295 3 12C3 16.9705 7.0295 21 12 21ZM12 22C17.523 22 22 17.523 22 12C22 6.477 17.523 2 12 2C6.477 2 2 6.477 2 12C2 17.523 6.477 22 12 22Z" fill="#1B1B1B" stroke="#1B1B1B"/>
<path fill-rule="evenodd" clip-rule="evenodd" d="M17.335 8.1295C17.4334 8.21836 17.4924 8.34265 17.4992 8.47504C17.5059 8.60743 17.4598 8.73709 17.371 8.8355L10.693 16.216L6.65501 12.3615C6.56434 12.2688 6.51321 12.1446 6.5124 12.0149C6.51159 11.8853 6.56117 11.7604 6.65068 11.6666C6.74019 11.5728 6.86262 11.5175 6.99216 11.5122C7.1217 11.507 7.24822 11.5523 7.34501 11.6385L10.64 14.7835L16.6295 8.165C16.6736 8.11629 16.7268 8.07674 16.7862 8.04862C16.8456 8.0205 16.9099 8.00435 16.9755 8.0011C17.0411 7.99785 17.1067 8.00756 17.1686 8.02968C17.2304 8.05179 17.2873 8.08588 17.336 8.13L17.335 8.1295Z" fill="#1B1B1B" stroke="#1B1B1B"/>
</svg>
