<svg width="23" height="22" viewBox="0 0 23 22" fill="none" xmlns="http://www.w3.org/2000/svg">
<path d="M12.5425 22H18.7978C19.9847 22 20.9791 21.5744 21.749 20.756C22.5188 19.9702 23 18.9226 23 17.744V4.94345C23 3.76488 22.5188 2.71726 21.749 1.93155C20.9791 1.14583 19.9526 0.6875 18.7978 0.6875H12.5425V3.37202H18.7978C19.696 3.37202 20.3696 4.05952 20.3696 4.94345V17.744C20.3696 18.628 19.696 19.3482 18.7978 19.3482H12.5425V22ZM0 8.80655V13.9137C0 14.503 0.481172 14.994 1.05858 14.994H6.89679V19.0208C6.89679 19.381 7.05718 19.6756 7.37796 19.8393C7.50628 19.872 7.66667 19.872 7.73082 19.872C7.95537 19.872 8.14784 19.8065 8.30823 19.6429L15.8466 11.9494C16.1353 11.6548 16.1032 11.0655 15.8466 10.7381L8.30823 3.07738C8.0516 2.81548 7.73082 2.78274 7.37796 2.88095C7.05718 3.04464 6.89679 3.30655 6.89679 3.66667V7.72619H1.05858C0.481172 7.72619 0 8.21726 0 8.80655Z" fill="white"/>
</svg>
